<svg width="12" height="20" viewBox="0 0 12 20" fill="none" xmlns="http://www.w3.org/2000/svg">
<path d="M11 18H7V14.41L7.79 15.21C7.88296 15.3037 7.99356 15.3781 8.11542 15.4289C8.23728 15.4797 8.36799 15.5058 8.5 15.5058C8.63201 15.5058 8.76272 15.4797 8.88458 15.4289C9.00644 15.3781 9.11704 15.3037 9.21 15.21C9.30373 15.117 9.37812 15.0064 9.42889 14.8846C9.47966 14.7627 9.5058 14.632 9.5058 14.5C9.5058 14.368 9.47966 14.2373 9.42889 14.1154C9.37812 13.9936 9.30373 13.883 9.21 13.79L6.71 11.29C6.6149 11.199 6.50275 11.1276 6.38 11.08C6.13654 10.98 5.86346 10.98 5.62 11.08C5.49725 11.1276 5.3851 11.199 5.29 11.29L2.79 13.79C2.69676 13.8832 2.6228 13.9939 2.57234 14.1158C2.52188 14.2376 2.49591 14.3681 2.49591 14.5C2.49591 14.6319 2.52188 14.7624 2.57234 14.8842C2.6228 15.0061 2.69676 15.1168 2.79 15.21C2.9783 15.3983 3.2337 15.5041 3.5 15.5041C3.63186 15.5041 3.76243 15.4781 3.88425 15.4277C4.00607 15.3772 4.11676 15.3032 4.21 15.21L5 14.41V18H1C0.734784 18 0.48043 18.1054 0.292893 18.2929C0.105357 18.4804 0 18.7348 0 19C0 19.2652 0.105357 19.5196 0.292893 19.7071C0.48043 19.8946 0.734784 20 1 20H11C11.2652 20 11.5196 19.8946 11.7071 19.7071C11.8946 19.5196 12 19.2652 12 19C12 18.7348 11.8946 18.4804 11.7071 18.2929C11.5196 18.1054 11.2652 18 11 18ZM1 2H5V5.59L4.21 4.79C4.11676 4.69676 4.00607 4.6228 3.88425 4.57234C3.76243 4.52188 3.63186 4.49591 3.5 4.49591C3.2337 4.49591 2.9783 4.6017 2.79 4.79C2.69676 4.88324 2.6228 4.99393 2.57234 5.11575C2.52188 5.23757 2.49591 5.36814 2.49591 5.5C2.49591 5.7663 2.6017 6.0217 2.79 6.21L5.29 8.71C5.3851 8.80104 5.49725 8.87241 5.62 8.92C5.7397 8.97291 5.86913 9.00023 6 9.00023C6.13087 9.00023 6.2603 8.97291 6.38 8.92C6.50275 8.87241 6.6149 8.80104 6.71 8.71L9.21 6.21C9.30324 6.11676 9.3772 6.00607 9.42766 5.88425C9.47812 5.76243 9.50409 5.63186 9.50409 5.5C9.50409 5.36814 9.47812 5.23757 9.42766 5.11575C9.3772 4.99393 9.30324 4.88324 9.21 4.79C9.11676 4.69676 9.00607 4.6228 8.88425 4.57234C8.76243 4.52188 8.63186 4.49591 8.5 4.49591C8.36814 4.49591 8.23757 4.52188 8.11575 4.57234C7.99393 4.6228 7.88324 4.69676 7.79 4.79L7 5.59V2H11C11.2652 2 11.5196 1.89464 11.7071 1.70711C11.8946 1.51957 12 1.26522 12 1C12 0.734784 11.8946 0.48043 11.7071 0.292893C11.5196 0.105357 11.2652 0 11 0H1C0.734784 0 0.48043 0.105357 0.292893 0.292893C0.105357 0.48043 0 0.734784 0 1C0 1.26522 0.105357 1.51957 0.292893 1.70711C0.48043 1.89464 0.734784 2 1 2Z" fill="white"/>
</svg>
